<svg xmlns="http://www.w3.org/2000/svg" viewBox="0 0 44.24 44.24"><defs><style>.cls-1{fill:#e83131;}.cls-2{fill:#fff;}</style></defs><g id="Layer_2" data-name="Layer 2"><g id="Layer_1-2" data-name="Layer 1"><path class="cls-1" d="M38.53,44.24H5.71A5.71,5.71,0,0,1,0,38.53V5.7A5.7,5.7,0,0,1,5.71,0H38.53a5.71,5.71,0,0,1,5.71,5.7V38.53a5.71,5.71,0,0,1-5.71,5.71"/><path class="cls-2" d="M36.22,24.55A6.06,6.06,0,0,0,32.78,21a6.59,6.59,0,0,0-4.87,0l-3.78,1.38-3.62-10a7,7,0,0,0-3.38-4.05A6.45,6.45,0,0,0,11.91,8a6.42,6.42,0,0,0-3.82,3.64,7.09,7.09,0,0,0,.06,5.2l5.45,15A7,7,0,0,0,17.13,36a6.91,6.91,0,0,0,5.51.06l9.51-3.46a6.67,6.67,0,0,0,3.72-3,6,6,0,0,0,.35-5m-3.55,3.28a3.14,3.14,0,0,1-1.76,1.37l-9.52,3.46a3.46,3.46,0,0,1-2.71.07A3.55,3.55,0,0,1,17,30.62l-5.45-15a3.61,3.61,0,0,1-.11-2.59,2.77,2.77,0,0,1,1.69-1.59,2.9,2.9,0,0,1,2.33.11,3.55,3.55,0,0,1,1.61,2.06L22,27l7.21-2.62a3.11,3.11,0,0,1,2.24-.06,2.47,2.47,0,0,1,1.4,1.48,2.4,2.4,0,0,1-.13,2"/><path class="cls-2" d="M30.76,25.88a1.47,1.47,0,0,0-1,.08L21,29.15,15.51,14.2a2,2,0,0,0-.8-1.13,1.12,1.12,0,0,0-1,0,1.09,1.09,0,0,0-.71.64,2,2,0,0,0,.13,1.38l5.45,15a2,2,0,0,0,.8,1.17,2,2,0,0,0,1.42-.14l9.51-3.46A1.62,1.62,0,0,0,31.2,27a.76.76,0,0,0,0-.66.79.79,0,0,0-.47-.49"/></g></g></svg>